<?xml version="1.0" encoding="UTF-8"?>
<svg xmlns="http://www.w3.org/2000/svg" id="outline" viewBox="0 0 512 512" width="512" height="512"><rect x="352.0001" y="128" width="16" height="16"/><rect x="328.0001" y="128" width="16" height="16"/><path d="M488.0001,80h-32a8.00643,8.00643,0,0,0-2.53027.41064L416.0001,92.90057V88l-.001-.02118a39.98567,39.98567,0,1,0-55.999-55.95087,39.98576,39.98576,0,1,0-55.999,55.95087L304.0001,88v14.24139l-30.43067-6.08612A8.00012,8.00012,0,0,0,264.0001,104v40a8.00075,8.00075,0,0,0,9.56933,7.84473l30.43067-6.08612V160a8.00008,8.00008,0,0,0,8,8h8v23.4635L285.38877,447.58691l-18.1106-48.29467A7.996,7.996,0,0,0,272.0001,392V320a32.03635,32.03635,0,0,0-32-32H212.5294L194.44,257.85034l36.24463,6.04077A8.00034,8.00034,0,0,0,240.0001,256V208a8.00034,8.00034,0,0,0-9.31543-7.89111L183.338,208H152.0001a8.00008,8.00008,0,0,0-8,8v8h-9.37622a23.88212,23.88212,0,0,0,1.37622-8V203.31372l2.34375-2.344A19.31355,19.31355,0,0,0,124.68662,168H112.0001a24.02718,24.02718,0,0,0-24,24v32h-8a40.0518,40.0518,0,0,0-36.6499,24H24.0001a8.00008,8.00008,0,0,0-8,8V392a8.00008,8.00008,0,0,0,8,8H44.48057l36.66675,40L42.10264,482.59424l11.79492,10.81152,38.10254-41.5664,38.10254,41.5664,11.79492-10.81152L102.85288,440l36.66675-40H152.0001a7.98282,7.98282,0,0,0,2.00171-.2627l29.99829,65.99561V488a8.00008,8.00008,0,0,0,8,8h128a8.00008,8.00008,0,0,0,8-8V472a7.99873,7.99873,0,0,0-5.0293-7.42773l-5.94629-2.37854L360.0001,235.0351l48.13965,254.4522A7.99974,7.99974,0,0,0,416.0001,496h16a7.99988,7.99988,0,0,0,7.92773-9.07129L400.0001,191.4635V168h8a8.00008,8.00008,0,0,0,8-8v-4.90057l37.46973,12.48993A8.00643,8.00643,0,0,0,456.0001,168h32a8.00008,8.00008,0,0,0,8-8V88A8.00008,8.00008,0,0,0,488.0001,80Zm-96-48a24,24,0,1,1-24,24A24.0275,24.0275,0,0,1,392.0001,32Zm-64,0a24,24,0,1,1-24,24A24.0275,24.0275,0,0,1,328.0001,32Zm-48,102.2417V113.7583l24,4.80023v10.88294ZM385.00864,200l12.97315,96H387.81748l-18.16211-96Zm-50.01709,0h15.35328L332.183,296H322.01865ZM199.27647,345.95508A39.59432,39.59432,0,0,0,193.79209,336h16.03223A24.111,24.111,0,0,1,232.296,351.57324l36.9104,98.42688-20.44385,4.08875-10.51245-4.20508ZM104.0001,238.62384a23.88531,23.88531,0,0,0,8,1.37616v4a4,4,0,0,1-8,0Zm43.249,24.68671a8.00276,8.00276,0,0,0,2.40821-1.65381L155.31358,256H176.0001v16a8.00917,8.00917,0,0,1-8,8h-16c-.03076,0-.06055.00671-.09107.00708-.22485.00256-.4497.03088-.67529.05273-.18823.01807-.377.02674-.56274.05811-.19825.03345-.3938.09119-.59082.14014-.20923.05188-.41944.09668-.62354.16528-.03467.01172-.07031.01562-.105.02783-.15625.05481-.29736.13428-.44849.198-.04931.02075-.0996.03882-.14868.06055l-9.29223-13.93836Zm-3.249,40.23474V320H120.96348Zm16,7.26086L167.35532,320H160.0001Zm87.27637,35.14893A39.59432,39.59432,0,0,0,241.79209,336h14.208v33.2179ZM256.0001,320h-24V304h8A16.01833,16.01833,0,0,1,256.0001,320Zm-48-16h8v16H199.38a23.88067,23.88067,0,0,1-18.74023-9.00732l-12.00733-15.00879a24.0319,24.0319,0,0,0,21.375-14.422l11.13233,18.55383A8.00091,8.00091,0,0,0,208.0001,304Zm16-57.44385-32-5.333V222.77686l32-5.333ZM160.0001,224h16v16h-16Zm-16,20.68622-4.60645,4.60675-15.60131,6.93384A19.87819,19.87819,0,0,0,128.0001,244v-4h16ZM112.0001,184h12.68652a3.31353,3.31353,0,0,1,2.34278,5.65674L124.68613,192h-20.686A8.00917,8.00917,0,0,1,112.0001,184Zm-8,27.31348L107.31358,208H120.0001v8a8,8,0,0,1-16,0ZM56.0001,264a24.02718,24.02718,0,0,1,24-24h8v4a20.013,20.013,0,0,0,18.47607,19.92285l-37.72509,16.7666,6.498,14.6211,49.37915-21.94629,10.99927,16.4989L100.8292,314.71924a28.35065,28.35065,0,0,1-44.8291-23.06983Zm-24,0h8v27.64941A44.14646,44.14646,0,0,0,50.275,320H32.0001Zm60,164.16064L66.18613,400h51.62793Zm52-44.16064h-112V336h112Zm16-9.73364V336h1.82422A24.111,24.111,0,0,1,184.296,351.57324l36.9104,98.42688-24.55,4.91ZM264.0001,480h-64v-9.44141l31.23755-6.24755L264.0001,477.4165Zm48,0h-32v-8a7.98737,7.98737,0,0,0-4.17163-7.00708l3.40918-.68188L312.0001,477.4165Zm-11.54468-24.434L319.8563,312h9.29956l-27.269,144.13843ZM422.628,480,390.84434,312h9.29956l22.70288,168ZM384.0001,184h-48V168h48Zm16-32h-80V96h80Zm16-42.23389,32-10.66681v49.8014l-32-10.66681Zm64,42.23389h-16V96h16Z"/><circle cx="392.0001" cy="56" r="8"/><circle cx="328.0001" cy="56" r="8"/></svg>
